/* XPM */
static char *_1a0ccce69aa491beefbfe3077468370A8YpUoGE3wYMCS5h[] = {
/* columns rows colors chars-per-pixel */
"64 64 188 2 ",
"   c None",
".  c #2E2917",
"X  c #312C19",
"o  c #37311D",
"O  c #39331F",
"+  c #3D3621",
"@  c #3E3826",
"#  c #443B25",
"$  c #493E26",
"%  c #493F28",
"&  c #443B25",
"*  c #4C411B",
"=  c #4B4124",
"-  c #4C432B",
";  c #50462D",
":  c #53492E",
">  c #554924",
",  c #55502F",
"<  c #554C31",
"1  c #594F33",
"2  c #544B35",
"3  c #5C5235",
"4  c #5E543A",
"5  c #555538",
"6  c #625424",
"7  c #62552D",
"8  c #6D5E28",
"9  c #615536",
"0  c #655A36",
"q  c #615639",
"w  c #655A3B",
"e  c #6A5E3E",
"r  c #6B5E35",
"t  c #7D6B2A",
"y  c #74642C",
"u  c #6F6135",
"i  c #6D613E",
"p  c #726335",
"a  c #716339",
"s  c #5F5D54",
"d  c #575347",
"f  c #665E4B",
"g  c #596342",
"h  c #636241",
"j  c #6E6342",
"k  c #686748",
"l  c #726644",
"z  c #756946",
"x  c #796C46",
"c  c #776B48",
"v  c #7B6E49",
"b  c #7E714B",
"n  c #666154",
"m  c #6B6556",
"M  c #746D5B",
"N  c #766E56",
"B  c #7F7451",
"V  c #806D29",
"C  c #85712C",
"Z  c #89772C",
"A  c #8C7A2D",
"S  c #877426",
"D  c #917E2E",
"F  c #897633",
"G  c #8E7B32",
"H  c #847339",
"J  c #917D32",
"K  c #83754C",
"L  c #87784D",
"P  c #897A4E",
"I  c #807245",
"U  c #837651",
"Y  c #867953",
"T  c #8A7C53",
"R  c #897D5A",
"E  c #83785C",
"W  c #857C64",
"Q  c #95812F",
"!  c #9B852E",
"~  c #9F892F",
"^  c #978330",
"/  c #988430",
"(  c #94813B",
")  c #9A863D",
"_  c #A38B2F",
"`  c #AA912F",
"'  c #A58D32",
"]  c #A38C3B",
"[  c #AB9331",
"{  c #A9923B",
"}  c #B09732",
"|  c #B59A33",
" . c #BA9F33",
".. c #B69C3C",
"X. c #9B8743",
"o. c #8F8056",
"O. c #8E815A",
"+. c #9C8B54",
"@. c #93855B",
"#. c #96885E",
"$. c #998A5C",
"%. c #A28C44",
"&. c #A89245",
"*. c #B0994C",
"=. c #A79455",
"-. c #BCA242",
";. c #8D8162",
":. c #978A61",
">. c #9A8D64",
",. c #968B65",
"<. c #9D9066",
"1. c #9E926A",
"2. c #8C8776",
"3. c #8C877C",
"4. c #918C7D",
"5. c #9D9377",
"6. c #A1956E",
"7. c #A29770",
"8. c #A59A74",
"9. c #A69C79",
"0. c #A89E7B",
"q. c #AAA07E",
"w. c #C1AA5B",
"e. c #8F8B81",
"r. c #928F86",
"t. c #989386",
"y. c #979489",
"u. c #9A9589",
"i. c #9F998B",
"p. c #949186",
"a. c #A89F83",
"s. c #A59C82",
"d. c #A29E92",
"f. c #A9A184",
"g. c #AAA38C",
"h. c #AAA38B",
"j. c #B4AB8D",
"k. c #B0A587",
"l. c #BDB08F",
"z. c #AAA593",
"x. c #ABA799",
"c. c #ACA99E",
"v. c #B3AB93",
"b. c #B0AB9A",
"n. c #B8AF94",
"m. c #BBB49B",
"M. c #ACAAA2",
"N. c #B3AFA5",
"B. c #BCB9AE",
"V. c #BAB5A7",
"C. c #BCBAB2",
"Z. c #C9B98B",
"A. c #C6BC9C",
"S. c #C3BCA4",
"D. c #C5BEA9",
"F. c #D1C08F",
"G. c #D4C498",
"H. c #C7C0AB",
"J. c #CAC3AE",
"K. c #C5C1B5",
"L. c #C9C6B9",
"P. c #CECABC",
"I. c #CDC7B2",
"U. c #D2CBB7",
"Y. c #D3CDBC",
"T. c #DED2B0",
"R. c #E1D6B8",
"E. c #CDCAC0",
"W. c #D1CDC1",
"Q. c #D6D1C3",
"!. c #D9D4C4",
"~. c #DBD7CB",
"^. c #DDD9CD",
"/. c #DFDBD1",
"(. c #E2DDCD",
"). c #E5E1D2",
"_. c #EAE7DA",
"`. c #ECE9DD",
"'. c #EFE7D3",
"]. c #F3EEDD",
"[. c #EEEBE0",
"{. c #F2EEE3",
"}. c #F6F3E7",
"|. c #F7F4E8",
" X c #F9F6EB",
".X c #FCF9ED",
"XX c #FEFBF0",
"oX c #FEFBF0",
/* pixels */
"                                                                                                                                ",
"                                                    / / ^ Q Q Q Q Q Q ^ / /                                                     ",
"                                            ^ ! Q Z Z A D ! ~ ' ~ ~ ! Q D Z Z D Q /                                             ",
"                                      / / Q Z D _ }  . . . . . . . . . . . .} ' Q Z D Q /                                       ",
"                                  ! Q Z D _ |  . . . . . . . . . . . . . . . . . . .' D A Q /                                   ",
"                                ! A D [  . . . . . . . . . . . . . . . . . . . . . . . .} Q Z !                                 ",
"                            / D Z `  . . . . . . . . . . . . . . . . . . . . . . . . . . . .} A D ^                             ",
"                          ^ Z ~  . . . . . . . . . .[ ^ Z - > V C Z J  . . . . . . . . . . . . ._ Z ^                           ",
"                        ^ Z [  . . . . . . . .` [ Z 8 1 1 e - w : , - 6 S [  . . . . . . . . . . .} Z Q /                       ",
"                      D A |  . . . . . . . .~ 1 3 % 3 3 4 b z 3 9 + O $ & 7 J D  . . . . . . . . . . .D Q /                     ",
"                    D D  . . . . . . .} ! J 1 1 : # w e w K q - - X & : ; - - 1 y |  . . . . . . . . . .Q D Q                   ",
"                  Q D  . . . . . .} Z 6 p 1 w 3 ; : 4 4 b j - & O + : - - - 1 1 1 y |  . . . . . . . . . .Q Q Q                 ",
"                Q A  . . . . . .[ 8 > $ # < e < : - w i v 4 % @ o + + # & - + - - 1 G |  . . . . . . . . . .Q Q                 ",
"              ^ Z |  . . . . .| 7 > < 3 1 % 3 3 - # 3 e j ; & + X O X # # o # + - 1 < t _  . . . . . . . . . .Z Q               ",
"            ! A [  . . . .-.w.=.m N d - f M M M m n 4 f k e.y.s X # & < f n @ % 3 W R i 7 [ -.w.-. . . . . . .} Z /             ",
"            D ~  . . . . .F.oXoX.X.X{.3.t..XXXXXXX.X2.2.[.oXoXoXN.3 i b [.XXt.& d  XE.+ : y Z..XG. . . . . . . .' D /           ",
"          ^ Z  . . . . . .F.oXK.y.x. X^.p.oXL.i.y.p.n `.{.4.B /..Xf.>.l..X.XQ.w n  XW.w % > Z.XXG. . . . . . . . .D ^           ",
"        / A [  . . . . . .F.oXz.- - {.^.i.oXK.a.i.5.v..XD.O.<.k.I.j.0.(. X(.}.R N  X!.T K 0 f.XXG. . . . . . . . .} Z /         ",
"        Q D  . . . . . . .F.oX`./.`.|.4.v.oX.XoXoX|.E.oXm.q.0.q.q.q.q.}.(.S..XS.;. XW.z q < t.XXG. . . . . . . . . .! ^         ",
"      / A [  . . . . . . .Z.oXP.V.P.oXV.m.oXY.B.C.C.E.oXH.q.0.h.H.j.H..X~.U..X).8..X!.v w & r.XXG. . . . . . . . . .} Z /       ",
"      ^ A  . . . . . . . .l.oXz.e 3 }.).S.oXP.M.M.M.C.oX).q.0.U..XS.)..X.X.X.X.Xk..XQ.U z z t.XXz.}  . . . . . . . . .Q Q       ",
"      Q _  . . . . . . . .g.oXv.e q _._.S.oX}.}.{.{.C.!.oX_.(. X`.j. X(.0.0.S.oXU..X|.`.`.`.N.XX{.].].'. . . . . . . .[ A       ",
"    Q Z  . . . . . . . . .5.P.2.j e H.Q.B.^.~.~.^.^.V.f.J._._.~.b.m.!.m.0.0.q.!.J.Y.Y.L.L.K.e.K.K.U.R.T. . . . . . . . .A /     ",
"    ! D  . . . . . . . . .H w 4 h B 0.z.z.f.x.g.g.f.q.0.0.f.x.x.c.z.x.f.0.0.0.8.>.o.T v e 4 + # * 8  . . . . . . . . . .! Q     ",
"    Q _  . . . . . . . . .G 3 j l :.q.z.c.c.x.c.M.x.z.x.M.M.c.z.g.z.h.f.0.0.0.6.@.K v I e : < # . = [  . . . . . . . . .` A     ",
"    Z }  . . . . . . . . .J < k b O.0.h.g.f.h.g.g.z.f.0.x.x.z.x.M.M.M.c.x.0.0.7.#.v f w q 3 < ; O + D  . . . . . . . . . .Z /   ",
"  / Z  . . . . . . . . . .[ , g j Y 8.f.x.z.z.g.z.M.M.f.0.f.q.q.g.x.g.a.f.f.0.0.>.K j w : < - : - # t  . . . . . . . . . .A /   ",
"  Q A  . . . . . . . . . . .9 g g l 8.f.z.x.x.f.0.h.f.0.0.7.<.;.Y z j Y >.<.0.9.6.:.l 3 w < : ; 1 = S  . . . . . . . . . .Q /   ",
"  ^ Q  . . . . . . . . . . .Z 4 g j 7.:.b B R ,.<.5.0.8.7.O.z w 0 f z b K T :.8.<.<.T q - 3 w e 1 - t  . . . . . . . . . .~ Q   ",
"  Q !  . . . . . . . . . . .J , 4 3 >.x z z e i z O.1.<.<.T z z e w w l z T P >.<.<.@.x < - - ; 3 w >  . . . . . . . . . ._ Q   ",
"  Q ~  . . . . . . . . . . .G , 5 2 L K K w w 4 h z <.8.0.@.z j 0 < = < e l T #.<.<.>.T l 1 : 4 Y o.^  . . . . . . . . . ._ D   ",
"  Q ~  . . . . . . . . . . ./ : & 5 Y Y j j : < w w R g.f.>.R K l l w j l R >.6.6.<.<.#.L v e T K e ]  . . . . . . . . . .[ D   ",
"  Q ~  . . . . . . . . . . . .t & 5 T T f w < q x Y <.M.g.>.6.6.@.:.>.>.6.9.0.g.0.6.<.$.T T K v v K )  . . . . . . . . . .` D   ",
"  ^ ~  . . . . . . . . . . . .} 3 h @.:.T U T O.>.@.s.M.z.6.8.6.6.8.0.z.a.z.z.M.0.6.>.T T T v v R $.P  . . . . . . . . . .` D   ",
"  Q !  . . . . . . . . . . . . .i o.:.8.9.7.1.8.7.7.g.M.g.6.8.0.9.9.0.z.M.x.M.z.8.>.@.P L K v 1 l @.]  . . . . . . . . . ._ ^   ",
"  ^ Q  . . . . . . . . . . . . .H O.O.h.q.9.0.0.9.a.g.x.a.0.8.0.9.f.x.c.c.x.h.8.6.<.T P K I $.R 9 @.{  . . . . . . . . . .~ ^   ",
"  / D  . . . . . . . . . . . . .| I T q.x.a.0.0.9.x.M.M.M.s.7.9.0.q.h.M.x.0.8.<.<.>.o.P v K :.@.w +... . . . . . . . . . .! ^   ",
"  / Z  . . . . . . . . . . . . . .( T 0.z.0.0.0.9.z.M.M.M.g.8.>.0.0.f.q.h.0.9.>.>.6.o.P K K @.U :.+. . . . . . . . . . . .A /   ",
"    Z }  . . . . . . . . . . . . . .o.<.0.0.0.9.9.a.M.x.a.,.6.<.6.0.0.0.9.9.6.>.<.>.o.L P v @.>.>.&. . . . . . . . . . . .Z /   ",
"    Q _  . . . . . . . . . . . . . .+.<.7.a.0.9.8.1.9.1.@.w < T 6.0.0.0.9.8.6.6.<.>.P K L v x T >... . . . . . . . . . .[ A     ",
"    / Q  . . . . . . . . . . . . . .=.<.<.9.8.q.<.:.Y U z z x Y 8.0.0.9.0.7.6.6.>.$.P L v z @.>.=. . . . . . . . . . . .~ Q     ",
"    ^ Z  . . . . . . . . . . . . . .*.<.<.7.9.7.<.8.>.T v @.>.8.0.0.9.9.9.6.6.$.$.o.T K x ) { *. . . . . . . . . . . . .A !     ",
"      D _  . . . . . . . . . . . . ...o.<.6.8.6.8.0.8.:.L @.<.8.6.6.7.7.6.<.<.<.#.P L L z {  . . . . . . . . . . . . .[ A       ",
"      ^ D  . . . . . . . . . . . . ...<.o.8.q.1.8.8.7.<.:.<.6.<.$.@.o.@.>.<.<.<.$.P L K x }  . . . . . . . . . . . . .! Q       ",
"      / Z }  . . . . . . . . . . . . .%.$.8.q.<.>.>.7.@.T U v v z z l K @.6.<.<.@.T b z l }  . . . . . . . . . . . . .Z /       ",
"        Q Q  . . . . . . . . . . . . . .+.6.8.<.T K v B U T R @.$.@.>.$.@.<.<.>.P P x z i |  . . . . . . . . . . . .~ Q         ",
"        ! A }  . . . . . . . . . . . . .&.1.7.<.K :.8.8.<.>.:.:.#.>.6.$.>.<.>.$.K K z e J  . . . . . . . . . . . .} Z /         ",
"          Q A  . . . . . . . . . . . . .| $.<.<.@.6.>.:.@.@.$.:.:.<.>.6.<.>.L L K x j p |  . . . . . . . . . . . .Q ^           ",
"            D _  . . . . . . . . . . . . .%.@.$.6.<.<.<.>.>.>.6.<.6.<.<.<.$.L L z i a }  . . . . . . . . . . . .` A /           ",
"            ^ Z }  . . . . . . . . . . . ...L K $.<.8.6.6.8.8.0.0.0.0.6.<.o.K x e 9 '  . . . . . . . . . . . .} A /             ",
"              ^ A  . . . . . . . . . . . . .{ x o.6.8.0.8.8.8.9.9.6.6.<.$.K x f 0 /  . . . . . . . . . . . . .Q Q               ",
"                Q Q  . . . . . . . . . . . . .] K @.8.<.>.>.>.<.<.<.$.o.K z w w ]  . . . . . . . . . . . . .! Q                 ",
"                ^ ^ /  . . . . . . . . . . . . .] I @.@.K T T T T L b z l 4 w ~  . . . . . . . . . . . . ._ A /                 ",
"                  / J /  . . . . . . . . . . . . .] v b v z x z x z j e q p [  . . . . . . . . . . . . ._ A /                   ",
"                    / D ( |  . . . . . . . . . . . .| J z l l j e w 4 0 F [  . . . . . . . . . . . . .! A /                     ",
"                      ! Q G }  . . . . . . . . . . . . .] H i r 7 u G [  . . . . . . . . . . . . . .D D !                       ",
"                          Q Z {  . . . . . . . . . . . . . . . . . . . . . . . . . . . . . . . .[ A Q                           ",
"                            / A J }  . . . . . . . . . . . . . . . . . . . . . . . . . . . . .Q A /                             ",
"                              / ^ Z ! |  . . . . . . . . . . . . . . . . . . . . . . . .| / A ^ /                               ",
"                                  ^ ^ Z ! [  . . . . . . . . . . . . . . . . . . . .} / A ^ /                                   ",
"                                      / / A A ^ [ .. . . . . . . . . . . . . .[ ~ A A ^ /                                       ",
"                                            ^ ! G Z J ^ / ' [ ` ` ` ` / ^ J Z D Q /                                             ",
"                                                  / ^ / Q Q D D J J ^ Q ^ / ^                                                   ",
"                                                                                                                                "
};
