/* XPM */
static char *_fb48626cda644cab4088f2da9fe1c29hgAD3yptiX6djeSe[] = {
/* columns rows colors chars-per-pixel */
"16 16 123 2 ",
"   c None",
".  c #504A39",
"X  c #5A5135",
"o  c #62552A",
"O  c #665828",
"+  c #605638",
"@  c #675B39",
"#  c #64593A",
"$  c #6D6038",
"%  c #786A3C",
"&  c #766840",
"*  c #7C6E46",
"=  c #7E7352",
"-  c #806F34",
";  c #867837",
":  c #907C30",
">  c #917E39",
",  c #83754E",
"<  c #85774E",
"1  c #8A7B4B",
"2  c #827755",
"3  c #887A51",
"4  c #887B53",
"5  c #887B55",
"6  c #887B56",
"7  c #8A7D57",
"8  c #8A7F5B",
"9  c #9B862F",
"0  c #9B8630",
"q  c #9B8536",
"w  c #9F8832",
"e  c #A08930",
"r  c #A08A30",
"t  c #A18B30",
"y  c #A28B30",
"u  c #A28B32",
"i  c #A38C32",
"p  c #A58D30",
"a  c #A58E30",
"s  c #A48D37",
"d  c #A79031",
"f  c #A89031",
"g  c #A99131",
"h  c #B19832",
"j  c #B29832",
"k  c #B29932",
"l  c #B39932",
"z  c #B49A32",
"x  c #B69C32",
"c  c #B79D33",
"v  c #B39934",
"b  c #B89D33",
"n  c #B89E33",
"m  c #BA9F33",
"M  c #B59B38",
"N  c #B69D3D",
"B  c #958245",
"V  c #9F8C4F",
"C  c #8C815D",
"Z  c #8F825C",
"A  c #918359",
"S  c #91845C",
"D  c #92855C",
"F  c #96885E",
"G  c #A28C42",
"H  c #A38E47",
"J  c #AA954E",
"K  c #958861",
"L  c #998C63",
"P  c #9A8C62",
"I  c #9B8E67",
"U  c #988D69",
"Y  c #9F9060",
"T  c #9D9169",
"R  c #9F936B",
"E  c #858175",
"W  c #928972",
"Q  c #958C73",
"!  c #958D75",
"~  c #958E7A",
"^  c #918C7E",
"/  c #9F9470",
"(  c #9E9476",
")  c #9F9679",
"_  c #9E967E",
"`  c #A0946C",
"'  c #A1956E",
"]  c #A2966F",
"[  c #A29771",
"{  c #A09677",
"}  c #A39873",
"|  c #A49973",
" . c #A69C7B",
".. c #A89E7C",
"X. c #A89F7F",
"o. c #BDAA70",
"O. c #B1A47F",
"+. c #9F998B",
"@. c #A39C86",
"#. c #A89F80",
"$. c #A8A28F",
"%. c #AAA48F",
"&. c #A8A290",
"*. c #AAA491",
"=. c #AAA492",
"-. c #AAA594",
";. c #ABA79B",
":. c #B6AF97",
">. c #B9B196",
",. c #BEB79F",
"<. c #B4B0A3",
"1. c #B9B3A0",
"2. c #BAB5A6",
"3. c #BEBAAE",
"4. c #CDBE95",
"5. c #C0BCAD",
"6. c #C9C3AF",
"7. c #C7C3B2",
"8. c #CBC5B3",
"9. c #CAC6B9",
"0. c #CEC9BB",
"q. c #D3CBB7",
"w. c #D9D4C5",
/* pixels */
"            e a a e             ",
"        d z m m m m x g         ",
"      h m w - @ o : h m h 9     ",
"    h 4.~ <.^ ;.. E W o.m h     ",
"  d m q.3.0.9.Q 8.w.2.1.m m g   ",
"  x m ! @.7.5.6.,.>.:.+.O.m x   ",
"e m m % ) -.%.*.&...6 X O m m y ",
"a m m ; 2 = U 6 @ 6 L + $ m m a ",
"a m m i C 8 _ [ ) $.[ < 1 m m p ",
"e m m m ` #.*.( $. .K 1 V m m y ",
"  x m m J ] I S ` ` A B N m m   ",
"  g m m x T K D A F < s m m g   ",
"    h m m H ' ' ' 4 > m m z     ",
"    0 x m b G * & q m m z 9     ",
"        g b m m m m m g         ",
"            e a a e             "
};
