/* XPM */
static char *_a17fb2d8bc0429ea47bf19697e9e34fPVLi6yifzB2szQKB[] = {
/* columns rows colors chars-per-pixel */
"32 32 144 2 ",
"   c None",
".  c #3D351F",
"X  c #463D26",
"o  c #473F28",
"O  c #4C432B",
"+  c #574A25",
"@  c #50472E",
"#  c #53492F",
"$  c #554C31",
"%  c #594E33",
"&  c #5D5235",
"*  c #595C3D",
"=  c #675826",
"-  c #645628",
";  c #66582F",
":  c #665A35",
">  c #605538",
",  c #665B3C",
"<  c #685C3C",
"1  c #72622E",
"2  c #6D613E",
"3  c #776835",
"4  c #74683C",
"5  c #685D41",
"6  c #6D6342",
"7  c #6A6946",
"8  c #726543",
"9  c #766A47",
"0  c #7B6C40",
"q  c #7C6F4A",
"w  c #7E724C",
"e  c #7F7968",
"r  c #82702D",
"t  c #8A762B",
"y  c #8E7A2B",
"u  c #937F2F",
"i  c #806F34",
"p  c #867334",
"a  c #8A7734",
"s  c #8F7B35",
"d  c #86753E",
"f  c #917E31",
"g  c #837445",
"h  c #8E7E47",
"j  c #82754D",
"k  c #86784E",
"l  c #897A4F",
"z  c #857953",
"x  c #897C53",
"c  c #8A7E5A",
"v  c #897F64",
"b  c #95812F",
"n  c #9B852F",
"m  c #9E882F",
"M  c #968132",
"N  c #9B8531",
"B  c #9F8832",
"V  c #A28B2F",
"C  c #A48D30",
"Z  c #A88F30",
"A  c #AC9331",
"S  c #AA9238",
"D  c #B09631",
"F  c #B69C33",
"G  c #BA9F33",
"H  c #B39B3B",
"J  c #958343",
"K  c #95844E",
"L  c #8F8157",
"P  c #93855C",
"I  c #96885E",
"U  c #9A8B5C",
"Y  c #A69145",
"T  c #AB9340",
"R  c #AB954A",
"E  c #A89453",
"W  c #928663",
"Q  c #958962",
"!  c #9A8D64",
"~  c #958B6B",
"^  c #9D9066",
"/  c #9E926A",
"(  c #868277",
")  c #8E887A",
"_  c #9C9274",
"`  c #A1956E",
"'  c #A29771",
"]  c #A49974",
"[  c #A69C79",
"{  c #A89E7B",
"}  c #C4AD66",
"|  c #C3B07A",
" . c #C9B67A",
".. c #938E81",
"X. c #979285",
"o. c #9D9787",
"O. c #9E9888",
"+. c #9F9C92",
"@. c #A79E81",
"#. c #A29B88",
"$. c #A09C93",
"%. c #A9A185",
"&. c #A7A18E",
"*. c #A9A38C",
"=. c #A6A192",
"-. c #AAA594",
";. c #ABA79A",
":. c #AEA99D",
">. c #BCB499",
",. c #ACAAA1",
"<. c #B4AFA3",
"1. c #BBB5A4",
"2. c #BEB8A7",
"3. c #B9B6AC",
"4. c #BDB9AD",
"5. c #C3BAA4",
"6. c #C1BBAA",
"7. c #C1BDB1",
"8. c #D4C49A",
"9. c #C7C0AC",
"0. c #CAC4AE",
"q. c #C5C0B0",
"w. c #CBC7BB",
"e. c #CDC9BC",
"r. c #D3CDBB",
"t. c #D7D2BF",
"y. c #DAD2BC",
"u. c #CFCCC1",
"i. c #D1CDC3",
"p. c #D4D1C7",
"a. c #D8D4C7",
"s. c #D6D3C8",
"d. c #DBD6C9",
"f. c #DDD8C8",
"g. c #DFDBD0",
"h. c #E6DCC1",
"j. c #E2DECE",
"k. c #E3DFD2",
"l. c #E4E1D7",
"z. c #E6E2D2",
"x. c #E8E4D6",
"c. c #EAE6D9",
"v. c #ECE9DE",
"b. c #F5F1E5",
/* pixels */
"                              b b                               ",
"                    b u m C A A A A C m b b                     ",
"                u n Z G G G G G G G G G G A n b                 ",
"              b A G G G G G G G G G G G G G G A b               ",
"            n F G G G F A 3 ; : 1 r Z G G G G G G n b           ",
"          m G G G F N & O , 9 & O X O ; n G G G G G m u         ",
"        n G G F t + & & @ : 8 X . o O O # N G G G G G m         ",
"      b F G G 5.i.e.) i.i.o.7.s.+.X 3.( ) #.p 8.} G G G b       ",
"    b A G G G a.X.u.4.g.$.<.w.5 2._ c.d.;.<.$ y. .G G G D b     ",
"    b G G G C s.7.z.5.l.6.r.r.[ 0.r.z.b.6.2.6 e.| G G G G n     ",
"  b A G G G p e.e 9.r.v.l.w.z.z.t.j.>.r.f.k.a.w.d.h.G G G A b   ",
"  u G G G G 4 , w *.*.-.:.%.@.*.*.{ { { ` x , @ X A G G G G b   ",
"  m G G G G 3 6 ~ -.-.-.-.*.;.;.;.-.{ { P j < O . y G G G G V   ",
"  C G G G G a 7 W %.-.-.;.%.%.*.#.#.%.{ ! 8 & $ @ = G G G G C   ",
"  A G G G G C * w ~ v W ` ] ! 9 < 8 x ^ ` x $ & % - G G G G A b ",
"b A G G G G A $ 7 j 6 , 9 ' ! 8 > & 6 c ^ ! 8 % 9 d G G G G D M ",
"b A G G G G F 1 6 z , 2 j =.] ^ P Q / @.{ ^ x j j h G G G G D f ",
"  A G G G G G B z [ ] ' ] ;.[ { [ *.,.;.] I z j 8 K G G G G D u ",
"  C G G G G G G g %.%.{ =.,.=.' { -.-.] ^ K j P j R G G G G Z   ",
"  m G G G G G G T / { [ @.-.~ Q ] { { ` ` x j z W H G G G G V   ",
"  b G G G G G G H ^ ] ] ! x q c [ { ] ` ! l j h E G G G G G b   ",
"  b A G G G G G G U ' ' { ! I ^ ! ` ^ ` U l j G G G G G G D b   ",
"    n G G G G G G Y ' ` W c z z x x ! ^ L j 4 G G G G G G m     ",
"    u A G G G G G G ^ ^ P ` I ! ! ! ! P k 8 M G G G G G D u     ",
"      b G G G G G G Y P ^ ` ^ ' ' ` ! k 8 a G G G G G G b       ",
"        n G G G G G G J ! ' ` ' ` ^ x 8 p F G G G G G m         ",
"        b C G G G G G G J x j j j 9 , s G G G G G G C b         ",
"          b N G G G G G G S d < < 3 S G G G G G G V b           ",
"              M A G G G G G G G G G G G G G G D b               ",
"                u m A G G G G G G G G G G D C u                 ",
"                    M M C Z A D D A A V b b                     ",
"                            b u M b                             "
};
